<?xml version="1.0" encoding="UTF-8"?>
<svg width="48px" height="48px" viewBox="0 0 48 48" version="1.1" xmlns="http://www.w3.org/2000/svg" xmlns:xlink="http://www.w3.org/1999/xlink">
    <!-- Generator: Sketch 47 (45396) - http://www.bohemiancoding.com/sketch -->
    <title>flag-au</title>
    <desc>Created with Sketch.</desc>
    <defs></defs>
    <g id="Page-1" stroke="none" stroke-width="1" fill="none" fill-rule="evenodd">
        <g id="dervla-book-03" transform="translate(-417.000000, -1329.000000)">
            <g id="Group-6" transform="translate(375.000000, 1289.000000)">
                <g id="AU-Preoder">
                    <g id="flag-au" transform="translate(42.000000, 40.000000)">
                        <g>
                            <path d="M45.5730337,24.0367775 C45.5730337,35.9848563 35.9145169,45.6705803 24,45.6705803 C12.0854831,45.6705803 2.42696629,35.9848563 2.42696629,24.0367775 C2.42696629,24.0417803 24,2.40540845 24,2.40297465 C35.9145169,2.40297465 45.5730337,12.0886986 45.5730337,24.0367775 Z" id="Shape" fill="#0052B4" fill-rule="nonzero"></path>
                            <g id="Group" transform="translate(2.426966, 2.298592)" fill-rule="nonzero" fill="#F0F0F0">
                                <path d="M21.5730337,11.3916845 C21.5730337,7.58494648 21.5730337,5.09070423 21.5730337,0.10451831 L21.5693933,0.10451831 C9.65662921,0.106411268 0,9.79145915 0,21.7381859 L11.2554607,21.7381859 L11.2554607,15.3823099 L17.5934831,21.7381859 L21.5153258,21.7381859 C21.5346067,21.7188507 21.5538876,21.6996507 21.5730337,21.6803155 C21.5730337,20.2228732 21.5730337,18.9222761 21.5730337,17.7476958 L15.2348764,11.3916845 L21.5730337,11.3916845 L21.5730337,11.3916845 Z" id="Shape"></path>
                            </g>
                            <g id="Group" transform="translate(5.123596, 5.138028)" fill-rule="nonzero" fill="#D80027">
                                <path d="M8.21757303,0.0869408451 C4.84355056,2.0135662 2.03851685,4.82650141 0.117303371,8.21002817 L0.117303371,18.8988845 L5.74503371,18.8988845 L5.74503371,5.73052394 L5.74503371,5.73038873 L18.8764045,5.73038873 C18.8764045,3.95033239 18.8764045,2.25464789 18.8764045,0.0868056338 L8.21757303,0.0868056338 L8.21757303,0.0869408451 Z" id="Shape"></path>
                                <path d="M18.8764045,16.2384676 L11.2117753,8.5523831 L8.55883146,8.5523831 L8.55883146,8.5523831 L18.8764045,18.8987493 L18.8764045,18.8987493 C18.8764045,18.8987493 18.8764045,17.0644732 18.8764045,16.2384676 Z" id="Shape"></path>
                            </g>
                            <g id="Group" transform="translate(10.516854, 11.763380)" fill-rule="nonzero" fill="#F0F0F0">
                                <polygon id="Shape" points="4.92094382 16.0357859 6.10489888 18.5185352 8.77860674 17.898862 7.58116854 20.3749859 9.73132584 22.0850028 7.05438202 22.689938 7.06166292 25.4417577 4.92094382 23.7201127 2.78022472 25.4417577 2.78750562 22.689938 0.110561798 22.0850028 2.2607191 20.3749859 1.06341573 17.898862 3.73698876 18.5185352"></polygon>
                                <polygon id="Shape" points="24.2093933 20.7388394 24.8013034 21.9802141 26.1381573 21.6703099 25.5395056 22.9084394 26.6145169 23.7633803 25.2760449 24.0658479 25.2796854 25.4417577 24.2093933 24.5810028 23.1389663 25.4417577 23.1427416 24.0658479 21.8041348 23.7633803 22.8791461 22.9084394 22.2804944 21.6703099 23.6173483 21.9802141"></polygon>
                                <polygon id="Shape" points="18.7022022 7.57034366 19.2942472 8.81185352 20.6309663 8.5019493 20.0324494 9.73994366 21.1073258 10.5948845 19.7689888 10.8974873 19.7724944 12.2733972 18.7022022 11.412507 17.6317753 12.2733972 17.6355506 10.8974873 16.2969438 10.5948845 17.3720899 9.73994366 16.7733034 8.5019493 18.1101573 8.81185352"></polygon>
                                <polygon id="Shape" points="24.2093933 0.0455661972 24.8013034 1.28707606 26.1381573 0.977171831 25.5396404 2.2151662 26.6145169 3.07024225 25.2760449 3.37270986 25.2796854 4.74861972 24.2093933 3.88772958 23.1389663 4.74861972 23.1427416 3.37270986 21.8041348 3.07024225 22.8790112 2.2151662 22.2804944 0.977171831 23.6173483 1.28707606"></polygon>
                                <polygon id="Shape" points="29.0197753 5.68928451 29.6116854 6.93065915 30.9485393 6.62061972 30.3498876 7.85888451 31.4248989 8.71382535 30.086427 9.01629296 30.0900674 10.392338 29.0197753 9.53144789 27.9493483 10.392338 27.9529888 9.01629296 26.6145169 8.71382535 27.6895281 7.85888451 27.0910112 6.62061972 28.4277303 6.93065915"></polygon>
                                <polygon id="Shape" points="25.5799551 12.2733972 26.0456629 13.710693 27.5525393 13.710693 26.3335281 14.5987606 26.799236 16.0357859 25.5799551 15.1477183 24.3609438 16.0357859 24.8266517 14.5987606 23.6075056 13.710693 25.1142472 13.710693"></polygon>
                            </g>
                            <path d="M23.9902921,0.0954591549 C14.0471461,0.0954591549 4.91824719,6.52516056 1.52602247,15.8890817 C-1.89101124,25.3231775 1.10238202,36.148462 8.80341573,42.5351662 C16.5206292,48.9357972 27.729573,49.7858704 36.3060674,44.5833465 C44.8848539,39.3792 49.4154607,29.0771831 47.3987865,19.2213634 C45.4231011,9.56890141 37.4180225,1.9091831 27.7040899,0.384270423 C26.4756404,0.191459155 25.2324944,0.0954591549 23.9902921,0.0954591549 M43.225618,32.7460056 C39.1481798,41.8065127 28.969618,46.9164169 19.2958652,44.6985465 C11.8511461,42.9920451 5.76094382,37.1586254 3.68534831,29.7989408 C1.56188764,22.2733521 3.86440449,14.0057239 9.53932584,8.64851831 C15.6787416,2.8524169 24.9333034,1.26990423 32.6387865,4.75456901 C41.8380674,8.91461408 46.9270112,19.3768563 44.4568989,29.2068507 C44.1517753,30.4206423 43.7352809,31.6041465 43.225618,32.7460056 C42.9440899,33.3716282 43.4335281,32.2802028 43.225618,32.7460056" id="Shape" fill="#000000" fill-rule="nonzero"></path>
                        </g>
                    </g>
                </g>
            </g>
        </g>
    </g>
</svg>