<?xml version="1.0" encoding="UTF-8"?>
<svg width="48px" height="48px" viewBox="0 0 48 48" version="1.1" xmlns="http://www.w3.org/2000/svg" xmlns:xlink="http://www.w3.org/1999/xlink">
    <!-- Generator: Sketch 47 (45396) - http://www.bohemiancoding.com/sketch -->
    <title>flag-uk</title>
    <desc>Created with Sketch.</desc>
    <defs></defs>
    <g id="Page-1" stroke="none" stroke-width="1" fill="none" fill-rule="evenodd">
        <g id="dervla-book-03" transform="translate(-1019.000000, -2315.000000)">
            <g id="UK-Preorder" transform="translate(975.000000, 2266.000000)">
                <g id="flag-uk" transform="translate(44.000000, 49.000000)">
                    <g>
                        <ellipse id="Oval" fill="#F0F0F0" fill-rule="nonzero" cx="24" cy="24.0369127" rx="21.5730337" ry="21.6338028"></ellipse>
                        <g id="Group" transform="translate(3.101124, 3.109859)" fill-rule="nonzero" fill="#0052B4">
                            <path d="M3.78539326,7.75585352 C2.09069663,9.96682817 0.813033708,12.5151549 0.0688988764,15.2834704 L11.2917303,15.2834704 L3.78539326,7.75585352 Z" id="Shape"></path>
                            <path d="M41.7288539,15.2836056 C40.9848539,12.5152901 39.7070562,9.96696338 38.0124944,7.75598873 L30.5060225,15.2836056 L41.7288539,15.2836056 Z" id="Shape"></path>
                            <path d="M0.0688988764,26.5707718 C0.812898876,29.3390873 2.09069663,31.8874141 3.78539326,34.0981183 L11.2914607,26.5707718 L0.0688988764,26.5707718 L0.0688988764,26.5707718 Z" id="Shape"></path>
                            <path d="M34.0329438,3.76549859 C31.8283146,2.06602817 29.2871461,0.784630986 26.5264719,0.0385352113 L26.5264719,11.2929803 L34.0329438,3.76549859 Z" id="Shape"></path>
                            <path d="M7.76480899,38.0886085 C9.9694382,39.7880789 12.5106067,41.0694761 15.2712809,41.8155718 L15.2712809,30.5611268 L7.76480899,38.0886085 Z" id="Shape"></path>
                            <path d="M15.2711461,0.0385352113 C12.5106067,0.784630986 9.9694382,2.06602817 7.76494382,3.76549859 L15.2711461,11.2928451 L15.2711461,0.0385352113 Z" id="Shape"></path>
                            <path d="M26.5266067,41.815707 C29.2871461,41.0696113 31.8283146,39.7882141 34.032809,38.0888789 L26.5266067,30.561262 L26.5266067,41.815707 Z" id="Shape"></path>
                            <path d="M30.5060225,26.5707718 L38.0122247,34.0981183 C39.7066517,31.8872789 40.9847191,29.3389521 41.7287191,26.5707718 L30.5060225,26.5707718 L30.5060225,26.5707718 Z" id="Shape"></path>
                        </g>
                        <g id="Group" transform="translate(2.426966, 2.298592)" fill-rule="nonzero" fill="#D80027">
                            <path d="M42.9633708,18.916462 L24.3869663,18.916462 L24.3869663,18.916462 L24.3869663,0.287594366 C23.4659326,0.167256338 22.5268315,0.104383099 21.5731685,0.104383099 C20.6193708,0.104383099 19.6804045,0.167256338 18.7593708,0.287594366 L18.7593708,18.916462 L18.7593708,18.9165972 L0.182696629,18.9165972 C0.0626966292,19.8402254 0,20.7818366 0,21.7383211 C0,22.6948056 0.0625617978,23.6364169 0.182561798,24.5600451 L18.7591011,24.5600451 L18.759236,24.5600451 L18.759236,43.1889127 C19.6802697,43.3092507 20.6193708,43.3721239 21.5730337,43.3721239 C22.5268315,43.3721239 23.4657978,43.3092507 24.3868315,43.1889127 L24.3868315,24.5603155 L24.3868315,24.5601803 L42.9633708,24.5601803 C43.0833708,23.6365521 43.1460674,22.6948056 43.1460674,21.7384563 C43.1460674,20.7819718 43.0833708,19.8402254 42.9633708,18.916462 Z" id="Shape"></path>
                            <path d="M27.200764,27.3820394 L27.200764,27.3820394 L36.8273258,37.0357183 C37.2699775,36.5918197 37.6924045,36.1277746 38.0954157,35.6468282 L29.8537079,27.3819042 L27.200764,27.3819042 L27.200764,27.3820394 Z" id="Shape"></path>
                            <path d="M15.9453034,27.3820394 L15.9453034,27.3820394 L6.31860674,37.0355831 C6.7611236,37.4794817 7.224,37.9030986 7.70346067,38.3072451 L15.9451685,30.0421859 L15.9451685,27.3820394 L15.9453034,27.3820394 L15.9453034,27.3820394 Z" id="Shape"></path>
                            <path d="M15.9453034,16.0948732 L15.9453034,16.094738 L6.31874157,6.44105915 C5.87608989,6.88482254 5.45366292,7.34900282 5.05065169,7.82981408 L13.2924944,16.0948732 L15.9453034,16.0948732 Z" id="Shape"></path>
                            <path d="M27.200764,16.0948732 L27.200764,16.0948732 L36.8274607,6.44105915 C36.384809,5.99716056 35.9220674,5.57354366 35.4424719,5.16939718 L27.200764,13.4344563 L27.200764,16.0948732 Z" id="Shape"></path>
                        </g>
                        <path d="M23.9902921,0.0954591549 C14.0471461,0.0954591549 4.91824719,6.52516056 1.52602247,15.8890817 C-1.89101124,25.3231775 1.10238202,36.148462 8.80341573,42.5351662 C16.5206292,48.9357972 27.729573,49.7858704 36.3060674,44.5833465 C44.8848539,39.3792 49.4154607,29.0771831 47.3987865,19.2213634 C45.4231011,9.56890141 37.4180225,1.9091831 27.7040899,0.384270423 C26.4756404,0.191459155 25.2324944,0.0954591549 23.9902921,0.0954591549 M43.225618,32.7460056 C39.1481798,41.8065127 28.969618,46.9164169 19.2958652,44.6985465 C11.8511461,42.9920451 5.76094382,37.1586254 3.68534831,29.7989408 C1.56188764,22.2733521 3.86440449,14.0057239 9.53932584,8.64851831 C15.6787416,2.8524169 24.9333034,1.26990423 32.6387865,4.75456901 C41.8380674,8.91461408 46.9270112,19.3768563 44.4568989,29.2068507 C44.1517753,30.4206423 43.7352809,31.6041465 43.225618,32.7460056 C42.9440899,33.3716282 43.4335281,32.2802028 43.225618,32.7460056" id="Shape" fill="#000000" fill-rule="nonzero"></path>
                    </g>
                </g>
            </g>
        </g>
    </g>
</svg>