<?xml version="1.0" encoding="UTF-8"?>
<svg width="48px" height="48px" viewBox="0 0 48 48" version="1.1" xmlns="http://www.w3.org/2000/svg" xmlns:xlink="http://www.w3.org/1999/xlink">
    <!-- Generator: Sketch 47 (45396) - http://www.bohemiancoding.com/sketch -->
    <title>flag-us</title>
    <desc>Created with Sketch.</desc>
    <defs></defs>
    <g id="Page-1" stroke="none" stroke-width="1" fill="none" fill-rule="evenodd">
        <g id="dervla-book-03" transform="translate(-416.000000, -2081.000000)">
            <g id="US-Preorder" transform="translate(375.000000, 2022.000000)">
                <g id="flag-us" transform="translate(40.887156, 59.000000)">
                    <g>
                        <ellipse id="Oval" fill="#F0F0F0" fill-rule="nonzero" cx="24" cy="24.0369127" rx="21.5730337" ry="21.6338028"></ellipse>
                        <g id="Group" transform="translate(3.101124, 7.030986)" fill-rule="nonzero" fill="#D80027">
                            <path d="M19.9608539,17.0057915 L42.4719101,17.0057915 C42.4719101,15.0530704 42.2124944,13.1616 41.7288539,11.3622085 L19.9608539,11.3622085 L19.9608539,17.0057915 Z" id="Shape"></path>
                            <path d="M19.9608539,5.71862535 L39.3053933,5.71862535 C37.9848539,3.55754366 36.2963596,1.64741408 34.3276854,0.0750422535 L19.9608539,0.0750422535 L19.9608539,5.71862535 L19.9608539,5.71862535 Z" id="Shape"></path>
                            <path d="M20.8988764,38.6395944 C25.9759551,38.6395944 30.6427416,36.8798197 34.3278202,33.9365408 L7.46993258,33.9365408 C11.1550112,36.8798197 15.8216629,38.6395944 20.8988764,38.6395944 Z" id="Shape"></path>
                            <path d="M2.49222472,28.293093 L39.3056629,28.293093 C40.3658427,26.5583324 41.1880449,24.6619944 41.7288539,22.6495099 L0.0688988764,22.6495099 C0.609842697,24.6618592 1.43191011,26.5583324 2.49222472,28.293093 Z" id="Shape"></path>
                        </g>
                        <path d="M12.4198652,5.78149859 L14.3858427,5.78149859 L12.5571236,7.11373521 L13.2556854,9.26940845 L11.4271011,7.93703662 L9.59851685,9.26940845 L10.2020225,7.40700845 C8.592,8.75195493 7.18058427,10.327707 6.01766292,12.0834254 L6.64759551,12.0834254 L5.48359551,12.9314704 C5.30224719,13.2348845 5.12817978,13.543031 4.96166292,13.8557746 L5.51757303,15.5713352 L4.48058427,14.8157746 C4.22292135,15.3635155 3.98696629,15.9235606 3.77501124,16.4952338 L4.38741573,18.3854873 L6.64773034,18.3854873 L4.81914607,19.7178592 L5.51757303,21.8733972 L3.68898876,20.5411606 L2.59361798,21.3393127 C2.48386517,22.2231887 2.42683146,23.1232901 2.42683146,24.0369127 L23.9998652,24.0369127 C23.9998652,12.0888338 23.9998652,10.680338 23.9998652,2.40310986 C19.738382,2.40297465 15.765573,3.64272676 12.4198652,5.78149859 Z M13.2558202,21.8733972 L11.427236,20.5411606 L9.59865169,21.8733972 L10.2972135,19.7178592 L8.46849438,18.3854873 L10.728809,18.3854873 L11.4273708,16.2299493 L12.1257978,18.3854873 L14.3861124,18.3854873 L12.5573933,19.7178592 L13.2558202,21.8733972 Z M12.5572584,13.4157972 L13.2558202,15.5713352 L11.427236,14.2390986 L9.59865169,15.5713352 L10.2972135,13.4157972 L8.46849438,12.0835606 L10.728809,12.0835606 L11.4273708,9.92788732 L12.1257978,12.0835606 L14.3861124,12.0835606 L12.5572584,13.4157972 Z M20.9940674,21.8733972 L19.1654831,20.5411606 L17.3368989,21.8733972 L18.0354607,19.7178592 L16.2068764,18.3854873 L18.467191,18.3854873 L19.165618,16.2299493 L19.8640449,18.3854873 L22.1243596,18.3854873 L20.2957753,19.7178592 L20.9940674,21.8733972 Z M20.2955056,13.4157972 L20.9939326,15.5713352 L19.1653483,14.2390986 L17.336764,15.5713352 L18.0353258,13.4157972 L16.2067416,12.0835606 L18.4670562,12.0835606 L19.1654831,9.92788732 L19.8639101,12.0835606 L22.1242247,12.0835606 L20.2955056,13.4157972 Z M20.2955056,7.11373521 L20.9939326,9.26940845 L19.1653483,7.93703662 L17.336764,9.26940845 L18.0353258,7.11373521 L16.2067416,5.78149859 L18.4670562,5.78149859 L19.1654831,3.62582535 L19.8639101,5.78149859 L22.1242247,5.78149859 L20.2955056,7.11373521 Z" id="Shape" fill="#0052B4" fill-rule="nonzero"></path>
                        <path d="M23.9902921,0.0954591549 C14.0471461,0.0954591549 4.91824719,6.52516056 1.52602247,15.8890817 C-1.89101124,25.3231775 1.10238202,36.148462 8.80341573,42.5351662 C16.5206292,48.9357972 27.729573,49.7858704 36.3060674,44.5833465 C44.8848539,39.3792 49.4154607,29.0771831 47.3987865,19.2213634 C45.4231011,9.56890141 37.4180225,1.9091831 27.7040899,0.384270423 C26.4756404,0.191459155 25.2324944,0.0954591549 23.9902921,0.0954591549 M43.225618,32.7460056 C39.1481798,41.8065127 28.969618,46.9164169 19.2958652,44.6985465 C11.8511461,42.9920451 5.76094382,37.1586254 3.68534831,29.7989408 C1.56188764,22.2733521 3.86440449,14.0057239 9.53932584,8.64851831 C15.6787416,2.8524169 24.9333034,1.26990423 32.6387865,4.75456901 C41.8380674,8.91461408 46.9270112,19.3768563 44.4568989,29.2068507 C44.1517753,30.4206423 43.7352809,31.6041465 43.225618,32.7460056 C42.9440899,33.3716282 43.4335281,32.2802028 43.225618,32.7460056" id="Shape" fill="#000000" fill-rule="nonzero"></path>
                    </g>
                </g>
            </g>
        </g>
    </g>
</svg>