<?xml version="1.0" encoding="UTF-8"?>
<svg width="44px" height="47px" viewBox="0 0 44 47" version="1.1" xmlns="http://www.w3.org/2000/svg" xmlns:xlink="http://www.w3.org/1999/xlink">
    <!-- Generator: Sketch 47 (45396) - http://www.bohemiancoding.com/sketch -->
    <title>icon-read</title>
    <desc>Created with Sketch.</desc>
    <defs></defs>
    <g id="Page-1" stroke="none" stroke-width="1" fill="none" fill-rule="evenodd">
        <g id="dervla-book-03" transform="translate(-1019.000000, -1458.000000)" fill-rule="nonzero">
            <g id="News-&amp;-Events-Copy" transform="translate(977.000000, 1342.000000)">
                <g id="icon-read" transform="translate(42.000000, 116.000000)">
                    <path d="M22,46.049 C21.853,46.049 21.706,46.017 21.57,45.952 L0.57,35.952 C0.222,35.786 0,35.435 0,35.049 L0,4.049 C0,3.706 0.176,3.387 0.466,3.203 C0.755,3.02 1.12,2.999 1.43,3.146 L22,12.941 L42.57,3.145 C42.88,2.999 43.243,3.019 43.533,3.203 C43.824,3.387 44,3.706 44,4.049 L44,35.049 C44,35.435 43.778,35.786 43.43,35.952 L22.43,45.952 C22.294,46.017 22.147,46.049 22,46.049 Z M2,34.417 L2,5.633 L21.571,14.952 C21.842,15.081 22.159,15.081 22.43,14.952 L42,5.633 L42,34.417 L22,43.941 L2,34.417 Z M22,10.204 L4.567,1.903 C4.068,1.665 3.857,1.068 4.094,0.57 C4.332,0.071 4.928,-0.138 5.427,0.096 L22,7.989 L38.573,0.096 C39.073,-0.138 39.668,0.071 39.906,0.57 C40.143,1.068 39.932,1.665 39.433,1.903 L22,10.204 Z" id="Combined-Shape" fill="#F2ECE3"></path>
                    <rect id="Rectangle-path" fill="#000000" x="21" y="14.049" width="2" height="31"></rect>
                </g>
            </g>
        </g>
    </g>
</svg>