<?xml version="1.0" encoding="UTF-8"?>
<svg width="66px" height="64px" viewBox="0 0 66 64" version="1.1" xmlns="http://www.w3.org/2000/svg" xmlns:xlink="http://www.w3.org/1999/xlink">
    <!-- Generator: Sketch 47 (45396) - http://www.bohemiancoding.com/sketch -->
    <title>Jin &amp; Co. Logo</title>
    <desc>Created with Sketch.</desc>
    <defs></defs>
    <g id="Symbols" stroke="none" stroke-width="1" fill="none" fill-rule="evenodd">
        <g id="site-gooter" transform="translate(-1479.000000, -38.000000)">
            <g id="Jin-&amp;-Co.-Logo" transform="translate(1479.000000, 38.000000)">
                <rect id="Rectangle-path" fill="#0E626C" x="0" y="0" width="66" height="64"></rect>
                <path d="M12,20.1218087 L13.055,20.1218087 C13.3631579,20.1218087 13.5702632,20.0500505 13.6763158,19.9058788 C13.7821053,19.7617071 13.8352632,19.5579008 13.8352632,19.2941321 L13.8352632,11 L17,11 L17,19.9592879 C17,21.0749802 16.795,21.8607159 16.3855263,22.3164951 C15.9760526,22.7726019 15.3234211,23 14.4278947,23 L12.0002632,23 L12.0002632,20.1218087 L12,20.1218087 Z" id="Shape" fill="#F2ECE3"></path>
                <polygon id="Shape" fill="#F2ECE3" points="22 11 26 11 26 23 22 23"></polygon>
                <polygon id="Shape" fill="#F2ECE3" points="29 11 32.3892006 11 35.9522878 15.6235256 35.9522878 11 40 11 40 23 36.5914003 23 33.0473595 18.3944954 33.0473595 23 29 23"></polygon>
                <path d="M15.5579589,27 L18.4413848,27 L23,39 L19.2158112,39 L18.819738,37.9207077 L15.1799338,37.9207077 L14.7832044,39 L11,39 L15.5579589,27 L15.5579589,27 Z M17.8571429,35.5714286 L17.0006938,33.8571429 L16.1428571,35.5714286 L17.8571429,35.5714286 L17.8571429,35.5714286 Z" id="Shape" fill="#F2ECE3"></path>
                <polygon id="Shape" fill="#F2ECE3" points="25 27 28.3892006 27 31.9522878 31.6238532 31.9522878 27 36 27 36 39 32.5910476 39 29.0470068 34.3941678 29.0470068 39 25 39"></polygon>
                <path d="M37,39 L37,27 L40.5083527,27 C41.6969164,27 42.7562959,27.1258191 43.6851096,27.3777851 C44.6142687,27.629751 45.3980092,28.0078637 46.0370219,28.5114679 C46.6756893,29.0150721 47.1620298,29.6418742 47.4974251,30.3908912 C47.8328204,31.1412189 48,32.0078637 48,32.9908257 C48,33.974443 47.8328204,34.8407602 47.4974251,35.5904325 C47.1620298,36.3401048 46.6756893,36.9669069 46.0370219,37.4708388 C45.3980092,37.9741153 44.6146141,38.3551769 43.6851096,38.6130406 C42.7562959,38.871232 41.6969164,39 40.5083527,39 L37,39 L37,39 Z M40.6666667,35.5714286 C41.8343001,35.5714286 42.7369296,35.3593049 43.3758314,34.9353839 C44.0143078,34.5111365 44.3333333,33.8630171 44.3333333,32.9910255 C44.3333333,32.1193604 44.0143078,31.4745044 43.3758314,31.0561312 C42.7369296,30.6380844 41.8343001,30.4285714 40.6666667,30.4285714 L40.6666667,35.5714286 L40.6666667,35.5714286 Z" id="Shape" fill="#F2ECE3"></path>
                <path d="M11,49.0003122 C11,48.0857619 11.1698329,47.2605121 11.5101622,46.5230017 C11.8494964,45.7854913 12.3112297,45.1538301 12.8940353,44.6280183 C13.476841,44.1025187 14.1568361,43.6997294 14.9336892,43.4196503 C15.7105422,43.1398834 16.5368193,43 17.4105301,43 C18.1031301,43 18.7184428,43.062448 19.2591219,43.1882806 C19.7991376,43.3144255 20.2635245,43.4568068 20.6526144,43.6169858 C21.101743,43.7993339 21.4905012,44.0001041 21.8185574,44.2167985 L19.9059466,47.3885304 C19.7115675,47.2517694 19.4982812,47.1206286 19.2687413,46.9944838 C19.0620891,46.9029975 18.8153006,46.8143214 18.5306978,46.7284555 C18.2450998,46.6425895 17.9206924,46.5998127 17.5564803,46.5998127 C17.1796635,46.5998127 16.8336952,46.6628851 16.5182438,46.7884055 C16.2024606,46.9136137 15.9264821,47.0853455 15.6893131,47.3026644 C15.4531391,47.5196711 15.2677161,47.7738343 15.1337073,48.0654663 C15.0000302,48.356786 14.9333575,48.6684013 14.9333575,48.9996878 C14.9333575,49.3312864 15.0026838,49.6425895 15.142995,49.933597 C15.2819794,50.2255412 15.4733731,50.4800167 15.7165129,50.6967111 C15.9593209,50.9137177 16.2445872,51.0854496 16.5723117,51.21097 C16.9000362,51.3368027 17.2586093,51.3995629 17.6473675,51.3995629 C18.0351306,51.3995629 18.382094,51.3542881 18.685604,51.2621774 C18.9884506,51.1710033 19.2435318,51.0682764 19.4501839,50.9536844 C19.692992,50.8287885 19.9056149,50.6798501 20.0873892,50.5081182 L22,53.6801624 C21.6722755,53.9312032 21.283849,54.1547669 20.8347205,54.34898 C20.4459622,54.5088468 19.9782582,54.6574729 19.4319402,54.7945462 C18.8859538,54.9313072 18.2600265,55 17.5564803,55 C16.6094626,55 15.7350884,54.854184 14.9333575,54.5634888 C14.13229,54.2718568 13.43969,53.8631349 12.8568844,53.3370108 C12.2747422,52.8115112 11.8193113,52.1801624 11.4912551,51.4432764 C11.1635305,50.7063905 11,49.8917569 11,49.0003122 L11,49.0003122 Z" id="Shape" fill="#F2ECE3"></path>
                <path d="M23,49 C23,48.1769787 23.1570403,47.4001665 23.4717452,46.6683145 C23.7858258,45.937087 24.2141742,45.2995265 24.7574149,44.7568819 C25.3000312,44.2142374 25.9369341,43.7855545 26.6684358,43.4711453 C27.3999376,43.1567362 28.1773337,43 28.9996878,43 C29.8232907,43 30.5997502,43.156424 31.331252,43.4711453 C32.0627537,43.7855545 32.700281,44.2142374 33.2432095,44.7568819 C33.7858258,45.2995265 34.2141742,45.937087 34.5288792,46.6683145 C34.8429597,47.4001665 35,48.1769787 35,49 C35,49.8230213 34.8429597,50.6001457 34.5288792,51.3313733 C34.2141742,52.0632253 33.7858258,52.7001613 33.2432095,53.2428058 C32.7005932,53.7860748 32.0630659,54.2141333 31.331252,54.5285424 C30.6000624,54.8432638 29.8232907,55 28.9996878,55 C28.1773337,55 27.3999376,54.8432638 26.6684358,54.5285424 C25.9372463,54.2141333 25.3003434,53.7860748 24.7574149,53.2428058 C24.2141742,52.7001613 23.7858258,52.0632253 23.4717452,51.3313733 C23.1573525,50.6001457 23,49.8230213 23,49 L23,49 Z M26.4285714,49 C26.4285714,49.3553028 26.4961438,49.6888592 26.6306194,50.0006691 C26.7657641,50.3134828 26.9494137,50.5861492 27.1822372,50.8183339 C27.4143916,51.0508531 27.6870226,51.2348612 27.998792,51.3693543 C28.3108959,51.504182 28.6444089,51.5714286 28.9996655,51.5714286 C29.354922,51.5714286 29.688435,51.5045166 30.001208,51.3693543 C30.3136464,51.2348612 30.5859429,51.0508531 30.8184319,50.8183339 C31.0512554,50.5861492 31.2345704,50.3131482 31.3693806,50.0006691 C31.5038562,49.6885246 31.5714286,49.3553028 31.5714286,49 C31.5714286,48.6446972 31.5038562,48.3108063 31.3693806,47.9989963 C31.2345704,47.6861827 31.0509208,47.4141853 30.8184319,47.1816661 C30.5856084,46.9488123 30.3136464,46.7648043 30.001208,46.6306457 C29.688435,46.4961526 29.354922,46.4285714 28.9996655,46.4285714 C28.6444089,46.4285714 28.3108959,46.4961526 27.998792,46.6306457 C27.6866881,46.7648043 27.4143916,46.9488123 27.1822372,47.1816661 C26.9494137,47.4141853 26.7654296,47.6865172 26.6306194,47.9989963 C26.4961438,48.3108063 26.4285714,48.6450318 26.4285714,49 L26.4285714,49 Z" id="Shape" fill="#F2ECE3"></path>
            </g>
        </g>
    </g>
</svg>