<?xml version="1.0" encoding="UTF-8"?>
<svg width="65px" height="64px" viewBox="0 0 65 64" version="1.1" xmlns="http://www.w3.org/2000/svg" xmlns:xlink="http://www.w3.org/1999/xlink">
    <!-- Generator: Sketch 47 (45396) - http://www.bohemiancoding.com/sketch -->
    <title>twitter</title>
    <desc>Created with Sketch.</desc>
    <defs></defs>
    <g id="Page-1" stroke="none" stroke-width="1" fill="none" fill-rule="evenodd">
        <g id="dervla-home-03" transform="translate(-815.000000, -1953.000000)">
            <g id="bout-the-author" transform="translate(375.000000, 1750.000000)">
                <g id="Group-3" transform="translate(355.000000, 203.000000)">
                    <g id="twitter" transform="translate(85.000000, 0.000000)">
                        <ellipse id="Oval" fill="#4099FF" cx="32.0909091" cy="32" rx="31.9338843" ry="32"></ellipse>
                        <path d="M37.2399934,18.1131879 C34.1958544,19.242674 32.2722003,22.155871 32.4907181,25.344032 L32.5639448,26.5742593 L31.3458243,26.4237401 C26.9138648,25.8465526 23.0409854,23.8886187 19.7527573,20.5985313 L18.1452566,18.9665247 L17.7314676,20.1718629 C16.8550717,22.8586886 17.4153142,25.6960335 19.2413327,27.6041894 C20.2153642,28.6590085 19.995684,28.8095276 18.316119,28.1813769 C17.7314676,27.9810798 17.220043,27.8305606 17.1712251,27.9052276 C17.0015252,28.0818209 17.5850142,30.365682 18.047621,31.269982 C18.6810902,32.5262834 19.9712751,33.7553254 21.3846669,34.4842173 L22.5783785,35.0614048 L21.1661491,35.0862938 C19.8027374,35.0862938 19.7539196,35.1111828 19.9003731,35.6397775 C20.3873888,37.2717841 22.3110429,39.0045319 24.4543771,39.7583127 L25.9642422,40.2845371 L24.6496484,41.0880959 C22.7015854,42.2448413 20.4117977,42.8966958 18.1220101,42.9452886 C17.0247717,42.9701776 16.1239669,43.0709188 16.1239669,43.1467709 C16.1239669,43.396846 19.0960416,44.8024813 20.8244244,45.3559651 C26.0118977,46.9879717 32.1745647,46.2839688 36.8017955,43.4975871 C40.0900235,41.5135791 43.3770892,37.5716372 44.9125255,33.7541402 C45.7412659,31.7215394 46.568844,28.0047836 46.568844,26.223443 C46.568844,25.0678828 46.6420707,24.9173636 48.0054823,23.5366173 C48.8098138,22.7330585 49.5641652,21.8548327 49.7106186,21.6035724 C49.9547077,21.1259409 49.9291364,21.1259409 48.6877693,21.5526093 C46.6176618,22.3063901 46.324755,22.2056489 47.3487666,21.0761629 C48.103118,20.2726041 49.0050851,18.8160056 49.0050851,18.3893372 C49.0050851,18.3146702 48.6401138,18.4391152 48.2251625,18.6654864 C47.7869645,18.9167467 46.812933,19.2936371 46.0818283,19.5188232 L44.7672344,19.9466768 L43.5735228,19.1170438 C42.9156447,18.6654864 41.9915934,18.1629659 41.5034153,18.0124468 C40.2608859,17.6616305 38.3604783,17.7114085 37.2399934,18.1131879 Z" id="Path" fill="#FFFFFF"></path>
                    </g>
                </g>
            </g>
        </g>
    </g>
</svg>